<mxfile host="app.diagrams.net" agent="Mozilla/5.0 (Windows NT 10.0; Win64; x64) AppleWebKit/537.36 (KHTML, like Gecko) Chrome/141.0.0.0 Safari/537.36 Edg/141.0.0.0" version="28.2.7">
  <diagram name="第 1 页" id="jK8HhsyoBAxDTNsPvt-C">
    <mxGraphModel dx="1225" dy="758" grid="1" gridSize="10" guides="1" tooltips="1" connect="1" arrows="1" fold="1" page="1" pageScale="1" pageWidth="827" pageHeight="1169" math="0" shadow="0">
      <root>
        <mxCell id="0" />
        <mxCell id="1" parent="0" />
        <mxCell id="MSPF_-7gTQST7HYo3n2n-2" value="结束" style="html=1;dashed=0;whiteSpace=wrap;shape=mxgraph.dfd.start" vertex="1" parent="1">
          <mxGeometry x="369" y="320" width="90" height="40" as="geometry" />
        </mxCell>
        <mxCell id="MSPF_-7gTQST7HYo3n2n-5" value="" style="edgeStyle=orthogonalEdgeStyle;rounded=0;orthogonalLoop=1;jettySize=auto;html=1;" edge="1" parent="1" source="MSPF_-7gTQST7HYo3n2n-3" target="MSPF_-7gTQST7HYo3n2n-4">
          <mxGeometry relative="1" as="geometry" />
        </mxCell>
        <mxCell id="MSPF_-7gTQST7HYo3n2n-3" value="开始" style="html=1;dashed=0;whiteSpace=wrap;shape=mxgraph.dfd.start" vertex="1" parent="1">
          <mxGeometry x="369" y="80" width="90" height="40" as="geometry" />
        </mxCell>
        <mxCell id="MSPF_-7gTQST7HYo3n2n-4" value="测试" style="whiteSpace=wrap;html=1;dashed=0;" vertex="1" parent="1">
          <mxGeometry x="354" y="190" width="120" height="60" as="geometry" />
        </mxCell>
        <mxCell id="MSPF_-7gTQST7HYo3n2n-6" style="edgeStyle=orthogonalEdgeStyle;rounded=0;orthogonalLoop=1;jettySize=auto;html=1;exitX=0.5;exitY=1;exitDx=0;exitDy=0;entryX=0.5;entryY=0.5;entryDx=0;entryDy=-20;entryPerimeter=0;" edge="1" parent="1" source="MSPF_-7gTQST7HYo3n2n-4" target="MSPF_-7gTQST7HYo3n2n-2">
          <mxGeometry relative="1" as="geometry" />
        </mxCell>
      </root>
    </mxGraphModel>
  </diagram>
</mxfile>
